# File created by Blade
# Date/Time:  Tue Jan 27 17:09:01 2015
#---------------------------------------------------------
:version 1.10
:name HOM
:units
  mass 1.0
  length 1.000000
  angle deg
:documentation
     Acclaim Skeleton File
:root
   axis xyz
   order TX TY TZ RX RY RZ
   position 0.000000 0.000000 0.000000
   orientation 0 0 0
:bonedata
   begin
      id 1
      name Spine_dum
      direction 0.000000 1.000000 0.000000
      length 7.539951
      axis 0.0 0.0 0.0 xyz
   end
   begin
      id 2
      name LeftUpLeg_dum
      direction 1.000000 0.000000 0.000000
      length 3.345476
      axis 0.0 0.0 0.0 xyz
   end
   begin
      id 3
      name RightUpLeg_dum
      direction -1.000000 0.000000 0.000000
      length 3.345476
      axis 0.0 0.0 0.0 xyz
   end
   begin
      id 4
      name Spine
      direction 0.000000 1.000000 0.000000
      length 0.000000
      axis 0.0 0.0 0.0 xyz
      dof rx ry rz
   end
   begin
      id 5
      name Spine_dum1
      direction 0.000000 1.000000 0.000000
      length 15.093809
      axis 0.0 0.0 0.0 xyz
   end
   begin
      id 6
      name Spine_dum2
      direction 0.000000 1.000000 0.000000
      length 9.738928
      axis 0.0 0.0 0.0 xyz
   end
   begin
      id 7
      name Spine_dum3
      direction 0.000000 1.000000 0.000000
      length 9.738928
      axis 0.0 0.0 0.0 xyz
   end
   begin
      id 8
      name Head
      direction 0.000000 1.000000 0.000000
      length 4.527550
      axis 0.0 0.0 0.0 xyz
      dof rx ry rz
   end
   begin
      id 9
      name LeftShoulder
      direction 1.000000 0.000000 0.000000
      length 7.084015
      axis 0.0 0.0 -90.0 xyz
      dof rx ry rz
   end
   begin
      id 10
      name LeftArm
      direction 1.000000 0.000000 0.000000
      length 10.259319
      axis 0.0 0.0 -90.0 xyz
      dof rx ry rz
   end
   begin
      id 11
      name LeftForeArm
      direction 1.000000 0.000000 0.000000
      length 9.896984
      axis 0.0 0.0 -90.0 xyz
      dof ry rz rx
   end
   begin
      id 12
      name LeftHand
      direction 0.000000 0.000000 0.000000
      length 0.000000
      axis 0.0 0.0 -90.0 xyz
      dof rx ry rz
   end
   begin
      id 13
      name LeftHand_dum1
      direction 0.000000 0.000000 0.000000
      length 0.000000
      axis 0.0 0.0 -90.0 xyz
   end
   begin
      id 14
      name LeftHand_dum2
      direction 1.000000 0.000000 0.000000
      length 3.937000
      axis 0.0 0.0 -90.0 xyz
   end
   begin
      id 15
      name LeftHandThumb1
      direction 0.000000 0.000000 1.000000
      length 3.937000
      axis 0.0 0.0 -90.0 xyz
      dof rx rz ry
   end
   begin
      id 16
      name RightShoulder
      direction -1.000000 0.000000 0.000000
      length 7.084015
      axis 0.0 0.0 90.0 xyz
      dof rx ry rz
   end
   begin
      id 17
      name RightArm
      direction -1.000000 0.000000 0.000000
      length 10.259319
      axis 0.0 0.0 90.0 xyz
      dof rx ry rz
   end
   begin
      id 18
      name RightForeArm
      direction -1.000000 0.000000 0.000000
      length 9.896984
      axis 0.0 0.0 90.0 xyz
      dof ry rz rx
   end
   begin
      id 19
      name RightHand
      direction 0.000000 0.000000 0.000000
      length 0.000000
      axis 0.0 0.0 90.0 xyz
      dof rx ry rz
   end
   begin
      id 20
      name RightHand_dum1
      direction 0.000000 0.000000 0.000000
      length 0.000000
      axis 0.0 0.0 90.0 xyz
   end
   begin
      id 21
      name RightHand_dum2
      direction -1.000000 0.000000 0.000000
      length 3.937000
      axis 0.0 0.0 90.0 xyz
   end
   begin
      id 22
      name RightHandThumb1
      direction 0.000000 0.000000 1.000000
      length 3.937000
      axis 0.0 0.0 90.0 xyz
      dof rx rz ry
   end
   begin
      id 23
      name LeftUpLeg
      direction 0.000000 -1.000000 0.000000
      length 19.114733
      axis 0.0 0.0 0.0 xyz
      dof rx ry rz
   end
   begin
      id 24
      name LeftLeg
      direction 0.000000 -1.000000 0.000000
      length 16.045604
      axis 0.0 0.0 0.0 xyz
      dof rx ry rz
   end
   begin
      id 25
      name LeftFoot
      direction 0.000000 -0.258819 0.965926
      length 5.543155
      axis 15.0 0.0 0.0 xyz
      dof rx ry rz
   end
   begin
      id 26
      name LeftToeBase
      direction 0.000000 0.000000 1.000000
      length 2.952750
      axis 0.0 0.0 0.0 xyz
      dof rx ry rz
   end
   begin
      id 27
      name RightUpLeg
      direction 0.000000 -1.000000 0.000000
      length 19.114733
      axis 0.0 0.0 0.0 xyz
      dof rx ry rz
   end
   begin
      id 28
      name RightLeg
      direction 0.000000 -1.000000 0.000000
      length 16.045604
      axis 0.0 0.0 0.0 xyz
      dof rx ry rz
   end
   begin
      id 29
      name RightFoot
      direction 0.000000 -0.258819 0.965926
      length 5.543155
      axis 15.0 0.0 0.0 xyz
      dof rx ry rz
   end
   begin
      id 30
      name RightToeBase
      direction 0.000000 0.000000 1.000000
      length 2.952750
      axis 0.0 0.0 0.0 xyz
      dof rx ry rz
   end
:hierarchy
   begin
      root Spine_dum LeftUpLeg_dum RightUpLeg_dum
      Spine_dum Spine
      LeftUpLeg_dum LeftUpLeg
      RightUpLeg_dum RightUpLeg
      Spine Spine_dum1 Spine_dum2 Spine_dum3
      Spine_dum1 Head
      Spine_dum2 LeftShoulder
      Spine_dum3 RightShoulder
      LeftShoulder LeftArm
      LeftArm LeftForeArm
      LeftForeArm LeftHand
      LeftHand LeftHand_dum1 LeftHand_dum2
      LeftHand_dum1 LeftHandThumb1
      RightShoulder RightArm
      RightArm RightForeArm
      RightForeArm RightHand
      RightHand RightHand_dum1 RightHand_dum2
      RightHand_dum1 RightHandThumb1
      LeftUpLeg LeftLeg
      LeftLeg LeftFoot
      LeftFoot LeftToeBase
      RightUpLeg RightLeg
      RightLeg RightFoot
      RightFoot RightToeBase
   end

# File created by Blade
# Date/Time:  Tue Jan 27 17:08:52 2015
# Frame Rate: 120.000 fps
#------------------------------------------------------
:FULLY-SPECIFIED
:DEGREES
945
root 4.814204 37.250920 -1.207589 -16.824263 44.491180 -18.017753
Spine 9.800246 2.135434 17.153274
Head -3.842320 -6.062755 -1.803050
LeftShoulder -0.186152 -8.891096 3.733554
LeftArm 10.878181 7.829943 -63.002879
LeftForeArm 14.427352 -0.000000 113.450188
LeftHand -10.587723 -0.000000 31.027270
LeftHandThumb1 -26.253704 0.000000 33.147579
RightShoulder 1.095597 -18.365893 -1.509296
RightArm 16.188933 -8.074500 61.421362
RightForeArm 192.257523 -0.000000 17.673795
RightHand 1.349100 -0.000000 5.640623
RightHandThumb1 -24.326973 -0.000000 -32.862282
LeftUpLeg -4.804406 -0.670160 9.850814
LeftLeg 25.329741 -0.000000 -0.000000
LeftFoot -20.464011 -13.533022 -6.428299
LeftToeBase 16.109881 -0.000000 -0.000000
RightUpLeg -76.242522 -4.740463 5.602691
RightLeg 88.950303 -0.000000 -0.000000
RightFoot -0.811207 -6.351275 -1.672066
RightToeBase 6.880365 -0.000000 -0.000000
946
root 4.796717 37.256733 -1.211081 -16.879638 44.579101 -18.106242
Spine 9.821414 2.137469 17.168607
Head -3.954381 -6.171196 -1.675627
LeftShoulder -0.137861 -8.926737 3.769814
LeftArm 10.964657 7.783427 -62.974534
LeftForeArm 14.245522 -0.000000 113.324381
LeftHand -10.479634 -0.000000 30.883226
LeftHandThumb1 -26.253704 0.000000 33.147579
RightShoulder 1.065817 -18.372418 -1.474145
RightArm 16.115417 -8.061531 61.462174
RightForeArm 192.249870 0.000000 17.620971
RightHand 1.326320 -0.000000 5.640695
RightHandThumb1 -24.326973 -0.000000 -32.862282
LeftUpLeg -4.826840 -0.702686 9.908663
LeftLeg 25.248780 -0.000000 -0.000000
LeftFoot -20.402386 -13.572777 -6.399255
LeftToeBase 16.068448 -0.000000 -0.000000
RightUpLeg -76.219235 -4.685524 5.207760
RightLeg 87.989426 -0.000000 -0.000000
RightFoot -2.037228 -6.778437 -1.788953
RightToeBase 6.506828 -0.000000 -0.000000
947
root 4.781040 37.259246 -1.218685 -16.864562 44.646212 -18.118118
Spine 9.835309 2.163016 17.133347
Head -4.077134 -6.262025 -1.572769
LeftShoulder -0.112149 -8.987965 3.817012
LeftArm 11.029880 7.786459 -62.940642
LeftForeArm 14.263911 -0.000000 113.180225
LeftHand -10.430513 -0.000000 30.900791
LeftHandThumb1 -26.253704 0.000000 33.147579
RightShoulder 1.062513 -18.378780 -1.452241
RightArm 16.040035 -8.059379 61.512543
RightForeArm 192.134090 -0.000000 17.571674
RightHand 1.352995 0.000000 5.732292
RightHandThumb1 -24.326973 -0.000000 -32.862282
LeftUpLeg -4.867604 -0.721695 9.908635
LeftLeg 25.192948 -0.000000 -0.000000
LeftFoot -20.369266 -13.584722 -6.362505
LeftToeBase 16.102245 -0.000000 -0.000000
RightUpLeg -76.266597 -4.671125 4.879574
RightLeg 87.116463 -0.000000 -0.000000
RightFoot -2.926043 -6.812340 -1.899777
RightToeBase 5.996025 -0.000000 -0.000000
948
root 4.768687 37.260166 -1.226114 -16.848810 44.694421 -18.111552
Spine 9.864133 2.205215 17.099024
Head -4.189502 -6.338735 -1.485967
LeftShoulder -0.090836 -9.026932 3.850950
LeftArm 11.113853 7.768747 -62.890748
LeftForeArm 14.188720 -0.000000 113.060612
LeftHand -10.369413 -0.000000 30.931870
LeftHandThumb1 -26.253704 0.000000 33.147579
RightShoulder 1.057162 -18.389028 -1.435334
RightArm 15.970347 -7.982007 61.557230
RightForeArm 192.410061 -0.000000 17.494698
RightHand 1.299427 -0.000000 5.367971
RightHandThumb1 -24.326973 -0.000000 -32.862282
LeftUpLeg -4.888803 -0.747426 9.894181
LeftLeg 25.149069 -0.000000 -0.000000
LeftFoot -20.330330 -13.535507 -6.128931
LeftToeBase 15.763435 -0.000000 -0.000000
RightUpLeg -76.343189 -4.708138 4.651114
RightLeg 86.342410 -0.000000 -0.000000
RightFoot -3.482001 -6.411899 -1.684252
RightToeBase 5.474217 -0.000000 -0.000000
